<svg width="30" height="30" viewBox="0 0 30 30" fill="none" xmlns="http://www.w3.org/2000/svg">
<circle cx="15" cy="15" r="15" fill="#FFA662"/>
<path d="M9.99998 8.33335H8.33331V6.66669H21.6666V8.33335H20V10C20 11.3459 19.32 12.4292 18.4633 13.3142C17.8775 13.9192 17.165 14.4767 16.4425 15C17.165 15.5234 17.8775 16.0809 18.4633 16.6859C19.32 17.5709 20 18.6542 20 20V21.6667H21.6666V23.3334H8.33331V21.6667H9.99998V20C9.99998 18.6542 10.68 17.5709 11.5366 16.6859C12.1225 16.0809 12.835 15.5234 13.5575 15C12.835 14.4767 12.1225 13.9192 11.5366 13.3142C10.68 12.4292 9.99998 11.3459 9.99998 10V8.33335ZM11.6666 8.33335V10C11.6666 10.5709 11.8833 11.1125 12.3091 11.6667H17.6908C18.1158 11.1125 18.3333 10.5709 18.3333 10V8.33335H11.6666ZM15 16.0184C14.1291 16.6334 13.34 17.2192 12.7341 17.845C12.5835 17.9998 12.4417 18.1628 12.3091 18.3334H17.6908C17.5583 18.1628 17.4164 17.9998 17.2658 17.845C16.66 17.2192 15.8708 16.6334 15 16.0184Z" fill="black"/>
</svg>
