<svg width="30" height="30" viewBox="0 0 30 30" fill="none" xmlns="http://www.w3.org/2000/svg">
<rect width="30" height="30" rx="15" fill="#E5E5E5"/>
<path d="M9.66667 23.3334C9.20833 23.3334 8.81611 23.1703 8.49 22.8442C8.16389 22.5181 8.00056 22.1256 8 21.6667V8.33335C8 7.87502 8.16333 7.4828 8.49 7.15669C8.81667 6.83058 9.20889 6.66724 9.66667 6.66669H15.6458C15.8681 6.66669 16.08 6.70835 16.2817 6.79169C16.4833 6.87502 16.6603 6.99308 16.8125 7.14585L20.8542 11.1875C21.0069 11.3403 21.125 11.5175 21.2083 11.7192C21.2917 11.9209 21.3333 12.1325 21.3333 12.3542V21.6667C21.3333 22.125 21.1703 22.5175 20.8442 22.8442C20.5181 23.1709 20.1256 23.3339 19.6667 23.3334H9.66667ZM15.5 11.6667V8.33335H9.66667V21.6667H19.6667V12.5H16.3333C16.0972 12.5 15.8994 12.42 15.74 12.26C15.5806 12.1 15.5006 11.9022 15.5 11.6667Z" fill="black"/>
</svg>
