<svg width="30" height="30" viewBox="0 0 30 30" fill="none" xmlns="http://www.w3.org/2000/svg">
<g clip-path="url(#clip0_436_2)">
<circle cx="15" cy="15" r="15" fill="#FE5353"/>
<path d="M14.0103 15L8.20526 9.19633C8.14018 9.13126 8.08856 9.054 8.05334 8.96898C8.01813 8.88395 8 8.79283 8 8.7008C8 8.60877 8.01813 8.51764 8.05334 8.43261C8.08856 8.34759 8.14018 8.27033 8.20526 8.20526C8.27033 8.14018 8.34759 8.08856 8.43261 8.05334C8.51764 8.01813 8.60877 8 8.7008 8C8.79283 8 8.88395 8.01813 8.96898 8.05334C9.054 8.08856 9.13126 8.14018 9.19633 8.20526L15 14.0103L20.8037 8.20526C20.9351 8.07383 21.1133 8 21.2992 8C21.4851 8 21.6633 8.07383 21.7947 8.20526C21.9262 8.33668 22 8.51493 22 8.7008C22 8.88666 21.9262 9.06491 21.7947 9.19633L15.9897 15L21.7947 20.8037C21.9262 20.9351 22 21.1133 22 21.2992C22 21.4851 21.9262 21.6633 21.7947 21.7947C21.6633 21.9262 21.4851 22 21.2992 22C21.1133 22 20.9351 21.9262 20.8037 21.7947L15 15.9897L9.19633 21.7947C9.06491 21.9262 8.88666 22 8.7008 22C8.51493 22 8.33668 21.9262 8.20526 21.7947C8.07383 21.6633 8 21.4851 8 21.2992C8 21.1133 8.07383 20.9351 8.20526 20.8037L14.0103 15Z" fill="black" stroke="black" stroke-width="0.3"/>
</g>
<defs>
<clipPath id="clip0_436_2">
<rect width="30" height="30" fill="white"/>
</clipPath>
</defs>
</svg>
