<svg width="8" height="9" viewBox="0 0 8 9" fill="none" xmlns="http://www.w3.org/2000/svg">
<path d="M1.66667 6.83333H2.14167L5.4 3.575L4.925 3.1L1.66667 6.35833V6.83333ZM1 7.5V6.08333L5.4 1.69167C5.46667 1.63056 5.54028 1.58333 5.62083 1.55C5.70139 1.51667 5.78611 1.5 5.875 1.5C5.96389 1.5 6.05 1.51667 6.13333 1.55C6.21667 1.58333 6.28889 1.63333 6.35 1.7L6.80833 2.16667C6.875 2.22778 6.92361 2.3 6.95417 2.38333C6.98472 2.46667 7 2.55 7 2.63333C7 2.72222 6.98472 2.80694 6.95417 2.8875C6.92361 2.96806 6.875 3.04167 6.80833 3.10833L2.41667 7.5H1ZM5.15833 3.34167L4.925 3.1L5.4 3.575L5.15833 3.34167Z" fill="#1D1B20"/>
</svg>
