<svg width="24" height="24" viewBox="0 0 24 24" fill="none" xmlns="http://www.w3.org/2000/svg">
<path d="M20.9301 2L18.9303 4M18.9303 4L21.93 7L18.4303 10.5L15.4306 7.5M18.9303 4L15.4306 7.5M11.321 11.61C11.8373 12.1195 12.2477 12.726 12.5287 13.3948C12.8096 14.0635 12.9555 14.7813 12.9579 15.5066C12.9603 16.232 12.8193 16.9507 12.5428 17.6213C12.2664 18.2919 11.86 18.9012 11.3472 19.4141C10.8343 19.9271 10.225 20.3334 9.55449 20.6099C8.88394 20.8864 8.16532 21.0275 7.44002 21.025C6.71473 21.0226 5.99707 20.8767 5.32839 20.5958C4.6597 20.3148 4.05318 19.9043 3.54377 19.388C2.54199 18.3507 1.98768 16.9614 2.00021 15.5193C2.01274 14.0772 2.59111 12.6977 3.61076 11.678C4.6304 10.6583 6.00974 10.0798 7.45168 10.0673C8.89363 10.0548 10.2828 10.6091 11.32 11.611L11.321 11.61ZM11.321 11.61L15.4306 7.5" stroke="black" stroke-width="1.5" stroke-linecap="round" stroke-linejoin="round"/>
</svg>
